<?xml version="1.0" encoding="utf-8"?>
<!-- Generator: Adobe Illustrator 23.0.1, SVG Export Plug-In . SVG Version: 6.00 Build 0)  -->
<svg version="1.1" id="Layer_1" xmlns="http://www.w3.org/2000/svg" xmlns:xlink="http://www.w3.org/1999/xlink" x="0px" y="0px"
	 viewBox="0 0 50 50" width="50" height="50" style="enable-background:new 0 0 50 50;" xml:space="preserve">
<style type="text/css">
	.st0{fill:#77562B;stroke:#1D3056;stroke-width:1.049;stroke-miterlimit:10;}
	.st1{fill:#77562B;stroke:#1D3056;stroke-miterlimit:10;}
	.st2{fill:#134A7C;stroke:#1D3056;stroke-width:1.9322;stroke-miterlimit:10;}
	.st3{fill:#A2CEE0;}
	.st4{fill:#2D83C4;stroke:#1D3056;stroke-width:1.9322;stroke-miterlimit:10;}
	.st5{fill:none;stroke:#1D3056;stroke-miterlimit:10;}
	.st6{fill:none;stroke:#1D3056;stroke-width:1.9322;stroke-miterlimit:10;}
	.st7{fill:none;stroke:#1D3056;stroke-width:1.9289;stroke-miterlimit:10;}
	.st8{fill:#126691;stroke:#1D3056;stroke-width:1.9322;stroke-miterlimit:10;}
	.st9{fill:#1D3056;stroke:#472C0B;stroke-miterlimit:10;}
</style>
<path class="st0" d="M12,36.9l-1.2,5.6c0,3.7,6.3,6.8,14,6.8s14-3,14-6.8l-1.2-5.6"/>
<path class="st1" d="M12.6,34.1l-1.2,5.3c0,3.6,6,6.4,13.3,6.4s13.3-2.9,13.3-6.4L37,34.1"/>
<polygon class="st2" points="17.8,41.9 10.8,38 10.8,29 10.8,10.2 20.1,1.4 29.9,1.4 39.2,10.2 39.2,29 39.2,38 32.3,41.9 "/>
<polyline class="st3" points="39.2,10.2 29.9,1.4 20.1,1.4 10.8,10.2 10.9,10.2 17.8,14 32.2,14 39.1,10.2 "/>
<polyline class="st4" points="10.9,12.8 7.1,16 2.5,35 10.6,35 "/>
<line class="st5" x1="20.3" y1="1.1" x2="18" y2="13.7"/>
<line class="st6" x1="17.8" y1="41.9" x2="17.8" y2="14"/>
<polyline class="st4" points="39.1,12.8 42.9,16 47.5,35 39.4,35 "/>
<polyline class="st7" points="39.1,10.2 32.2,14 17.8,14 10.9,10.2 "/>
<line class="st5" x1="29.7" y1="1.1" x2="32" y2="13.7"/>
<line class="st6" x1="32.2" y1="41.9" x2="32.2" y2="14"/>
<polygon class="st6" points="17.8,41.9 10.8,38 10.8,29 10.8,10.2 20.1,1.4 29.9,1.4 39.2,10.2 39.2,29 39.2,38 32.3,41.9 "/>
<rect x="17.8" y="13.7" class="st8" width="14.4" height="27.8"/>
<line class="st9" x1="20.5" y1="18.2" x2="29.5" y2="18.2"/>
<line class="st9" x1="20.5" y1="22.8" x2="29.5" y2="22.8"/>
<line class="st9" x1="20.5" y1="27.5" x2="29.5" y2="27.5"/>
<line class="st9" x1="20.5" y1="32.1" x2="29.5" y2="32.1"/>
<line class="st9" x1="20.5" y1="36.7" x2="29.5" y2="36.7"/>
</svg>
