<?xml version="1.0" encoding="utf-8"?>
<!-- Generator: Adobe Illustrator 23.0.1, SVG Export Plug-In . SVG Version: 6.00 Build 0)  -->
<svg version="1.1" id="Layer_1" xmlns="http://www.w3.org/2000/svg" xmlns:xlink="http://www.w3.org/1999/xlink" x="0px" y="0px"
	 viewBox="0 0 36 41.9" style="enable-background:new 0 0 36 41.9;" width="36" height="42" xml:space="preserve">
<style type="text/css">
	.st0{fill:#5A6EFF;stroke:#000000;stroke-width:2.9091;stroke-miterlimit:10;}
	.st1{fill:#CC7DFF;stroke:#000000;stroke-width:1.8016;stroke-linecap:round;stroke-linejoin:round;stroke-miterlimit:10;}
	.st2{fill:#5A6EFF;}
	.st3{fill:#E3ACF9;stroke:#000000;stroke-width:1.2121;stroke-miterlimit:10;}
	.st4{fill:#EF6F8B;stroke:#000000;stroke-width:2;stroke-linecap:round;stroke-linejoin:round;stroke-miterlimit:10;}
</style>
<path class="st0" d="M9.3,23.4c0,12,3.9,13.1,8.7,13.1s8.7-1,8.7-13.1S22.8,1.6,18,1.6S9.3,11.4,9.3,23.4z"/>
<path class="st1" d="M13.8,3.9L1,29.8c0,0,0,0,6.4,9.7c0,0,2.1-10.4,5.3-6.8"/>
<path class="st1" d="M22.2,3.9L35,29.8c0,0,0,0-6.4,9.7c0,0-2.1-10.4-5.3-6.8"/>
<g>
	<path class="st1" d="M18,40.9c-5.8,0-5.8-1.4-5.8-1.4l3.2-2.9h5.2l3.2,2.9C23.8,39.5,23.8,40.9,18,40.9"/>
</g>
<path class="st2" d="M9.3,23.4c0,12,3.9,13.1,8.7,13.1s8.7-1,8.7-13.1S22.8,1.6,18,1.6S9.3,11.4,9.3,23.4z"/>
<path class="st3" d="M14.4,15.1c0,5,1.6,5.5,3.6,5.5s3.6-0.4,3.6-5.5S20,6,18,6S14.4,10.1,14.4,15.1z"/>
<path class="st4" d="M9,17.9"/>
</svg>
