<?xml version="1.0" encoding="utf-8"?>
<!-- Generator: Adobe Illustrator 23.0.1, SVG Export Plug-In . SVG Version: 6.00 Build 0)  -->
<svg version="1.1" id="Layer_1" xmlns="http://www.w3.org/2000/svg" xmlns:xlink="http://www.w3.org/1999/xlink" x="0px" y="0px"
	 viewBox="0 0 30.5 30" width="30" height="30" style="enable-background:new 0 0 30.5 30;" xml:space="preserve">
<style type="text/css">
	.st0{fill:#7599D3;stroke:#28303D;stroke-width:1.081;stroke-miterlimit:10;}
	.st1{fill:#AA3D2B;stroke:#512D27;stroke-width:1.0537;stroke-miterlimit:10;}
	.st2{fill:none;stroke:#28303D;stroke-width:0.25;stroke-miterlimit:10;}
	.st3{fill:#1D4B96;stroke:#28303D;stroke-width:1.3318;stroke-miterlimit:10;}
	.st4{fill:#1F6FE5;stroke:#28303D;stroke-width:1.081;stroke-miterlimit:10;}
	.st5{fill:#92B4EA;stroke:#28303D;stroke-width:0.9295;stroke-miterlimit:10;}
	.st6{fill:none;stroke:#28303D;stroke-width:0.5832;stroke-miterlimit:10;}
	.st7{fill:none;stroke:#28303D;stroke-width:1.0238;stroke-linecap:round;stroke-miterlimit:10;stroke-dasharray:0.1271,4.0669;}
</style>
<g>
	<path class="st0" d="M3.9,13.1c0,0-3.4,1.8-3.4,11.3h10.1"/>
	<path class="st0" d="M26.6,13.1c0,0,3.4,1.8,3.4,11.3H19.9"/>
</g>
<path class="st1" d="M-2.7,35.7"/>
<g>
	<path class="st2" d="M5.7,13.1c0,0-2.9,1.8-2.9,11.3h8.5"/>
	<path class="st2" d="M24.8,13.1c0,0,2.9,1.8,2.9,11.3h-8.5"/>
</g>
<g>
	<path class="st2" d="M7.6,13.1c0,0-2.3,1.8-2.3,11.3h6.9"/>
	<path class="st2" d="M22.9,13.1c0,0,2.3,1.8,2.3,11.3h-6.9"/>
</g>
<path class="st3" d="M26.5,29.5c0-7.1-5-10.8-11.2-10.8S4,22.4,4,29.5H26.5z"/>
<ellipse class="st4" cx="15.2" cy="13.1" rx="11.3" ry="12.6"/>
<ellipse class="st5" cx="15.2" cy="9.7" rx="3.6" ry="4"/>
<ellipse class="st6" cx="15.2" cy="9.7" rx="7" ry="7.8"/>
<g>
	<ellipse class="st7" cx="15.2" cy="9.8" rx="5.8" ry="6.2"/>
</g>
</svg>
