<?xml version="1.0" encoding="utf-8"?>
<!-- Generator: Adobe Illustrator 23.0.1, SVG Export Plug-In . SVG Version: 6.00 Build 0)  -->
<svg version="1.1" id="Layer_1" xmlns="http://www.w3.org/2000/svg" xmlns:xlink="http://www.w3.org/1999/xlink" x="0px" y="0px"
	 viewBox="0 0 30.5 30" width="30" height="30" style="enable-background:new 0 0 30.5 30;" xml:space="preserve">
<style type="text/css">
	.st0{fill:#FFFFFF;stroke:#512D27;stroke-miterlimit:10;}
	.st1{fill:#AA3D2B;stroke:#512D27;stroke-width:1.0109;stroke-miterlimit:10;}
	.st2{fill:#D36506;stroke:#512D27;stroke-width:1.2379;stroke-miterlimit:10;}
	.st3{fill:none;stroke:#512D27;stroke-width:1.7182;stroke-miterlimit:10;}
	.st4{fill:#2AF6FF;stroke:#512D27;stroke-width:1.2778;stroke-miterlimit:10;}
	.st5{fill:#FF962A;stroke:#512D27;stroke-width:1.2379;stroke-miterlimit:10;}
</style>
<path class="st0" d="M-2.7,35.7"/>
<path class="st1" d="M22.4,29.4c0-6.3-3.3-9.5-7.3-9.5s-7.3,3.3-7.3,9.5H22.4z"/>
<path class="st2" d="M15,1.4c-5.3,0-9.5,2.3-9.5,5.1v17.4c0,0.8,1.2,1.5,2.7,1.5H22c1.5,0,2.7-0.6,2.7-1.5V6.5
	C24.5,3.6,20.3,1.4,15,1.4"/>
<line class="st3" x1="5.5" y1="9.9" x2="24.7" y2="9.9"/>
<line class="st3" x1="5.5" y1="14.1" x2="24.7" y2="14.1"/>
<line class="st3" x1="5.5" y1="18.3" x2="24.7" y2="18.3"/>
<line class="st3" x1="5.5" y1="22.5" x2="24.7" y2="22.5"/>
<circle class="st4" cx="15.1" cy="12.1" r="5"/>
<path class="st3" d="M15.1,7.1"/>
<path class="st3" d="M15.1,1.8"/>
<g>
	<path class="st5" d="M5.4,6.9c0,0-4.4,6.1-4.4,14h4.5"/>
	<path class="st5" d="M24.8,6.9c0,0,4.4,6.1,4.4,14h-4.5"/>
</g>
</svg>
