<?xml version="1.0" encoding="utf-8"?>
<!-- Generator: Adobe Illustrator 23.0.1, SVG Export Plug-In . SVG Version: 6.00 Build 0)  -->
<svg version="1.1" id="Layer_1" xmlns="http://www.w3.org/2000/svg" xmlns:xlink="http://www.w3.org/1999/xlink" x="0px" y="0px"
	 viewBox="0 0 30.4 29.9" width="30.5" height="30" style="enable-background:new 0 0 30.4 29.9;" xml:space="preserve">
<style type="text/css">
	.st0{fill:#FFFFFF;stroke:#512D27;stroke-miterlimit:10;}
	.st1{fill:#AA3D2B;stroke:#512D27;stroke-width:1.0537;stroke-miterlimit:10;}
	.st2{fill:#D34F31;stroke:#512D27;stroke-miterlimit:10;}
	.st3{fill:#F9BBB2;stroke:#512D27;stroke-miterlimit:10;}
	.st4{fill:#ED533A;stroke:#512D27;stroke-miterlimit:10;}
	.st5{fill:#D34F31;stroke:#512D27;stroke-width:1.0537;stroke-miterlimit:10;}
</style>
<path class="st0" d="M-2.7,35.6"/>
<path class="st1" d="M22.7,29.3c0-6.5-3.4-9.9-7.6-9.9s-7.6,3.4-7.6,9.9H22.7z"/>
<path class="st2" d="M15.2,0.5c-3.1,0-5.6,2.5-5.6,5.6v19.2c0,0.9,0.7,1.6,1.6,1.6h8.1c0.9,0,1.6-0.7,1.6-1.6V6.1
	C20.8,3,18.3,0.5,15.2,0.5"/>
<circle class="st3" cx="15.1" cy="5.9" r="3.9"/>
<g>
	<path class="st4" d="M9.5,6.1c0,0-8.9,4.1-8.9,19.2h8.9"/>
	<path class="st4" d="M20.8,6.1c0,0,8.9,4.1,8.9,19.2h-8.9"/>
</g>
<line class="st5" x1="11.5" y1="14.2" x2="18.4" y2="14.2"/>
<line class="st5" x1="11.5" y1="16.8" x2="18.4" y2="16.8"/>
<line class="st5" x1="11.5" y1="19.4" x2="18.4" y2="19.4"/>
<line class="st5" x1="11.5" y1="22.2" x2="18.4" y2="22.2"/>
</svg>
