<?xml version="1.0" encoding="utf-8"?>
<!-- Generator: Adobe Illustrator 23.0.1, SVG Export Plug-In . SVG Version: 6.00 Build 0)  -->
<svg version="1.1" id="Layer_1" xmlns="http://www.w3.org/2000/svg" xmlns:xlink="http://www.w3.org/1999/xlink" x="0px" y="0px"
	 viewBox="0 0 30 30" width="30" height="30" style="enable-background:new 0 0 30 30;" xml:space="preserve">
<style type="text/css">
	.st0{fill:none;stroke:#4C4FA1;stroke-miterlimit:10;}
	.st1{fill:none;stroke:#000000;stroke-miterlimit:10;}
	.st2{fill:none;stroke:#687BB6;stroke-miterlimit:10;}
	.st3{fill:#9B99AA;}
	.st4{fill:#E82727;}
</style>
<circle class="st0" cx="15" cy="15" r="4"/>
<line class="st1" x1="15" y1="15" x2="15" y2="2.7"/>
<line class="st2" x1="14.9" y1="15" x2="4.2" y2="8.9"/>
<line class="st2" x1="14.9" y1="15.3" x2="4.2" y2="21.5"/>
<line class="st1" x1="14.9" y1="15.4" x2="14.9" y2="27.7"/>
<line class="st2" x1="15" y1="15" x2="15" y2="2.7"/>
<line class="st2" x1="15.1" y1="15" x2="25.7" y2="8.9"/>
<line class="st2" x1="15.1" y1="15.3" x2="25.8" y2="21.5"/>
<line class="st2" x1="15" y1="15.4" x2="15" y2="27.7"/>
<g>
	<path class="st3" d="M15,30C6.7,30,0,23.3,0,15C0,6.7,6.7,0,15,0c8.3,0,15,6.7,15,15C30,23.3,23.3,30,15,30z M15,4.6
		C9.3,4.6,4.6,9.3,4.6,15c0,5.7,4.7,10.4,10.4,10.4c5.7,0,10.4-4.7,10.4-10.4C25.4,9.3,20.7,4.6,15,4.6z"/>
</g>
<circle class="st3" cx="15" cy="15" r="2.5"/>
<circle class="st4" cx="15" cy="15" r="1.3"/>
</svg>
