<?xml version="1.0" encoding="utf-8"?>
<!-- Generator: Adobe Illustrator 23.0.1, SVG Export Plug-In . SVG Version: 6.00 Build 0)  -->
<svg version="1.1" id="Layer_1" xmlns="http://www.w3.org/2000/svg" xmlns:xlink="http://www.w3.org/1999/xlink" x="0px" y="0px"
	 viewBox="0 0 152 200" width="152" height="200" style="enable-background:new 0 0 152 200;" xml:space="preserve">
<style type="text/css">
	.st0{fill:#A56F83;stroke:#000000;stroke-width:3;stroke-miterlimit:10;}
	.st1{fill:#EA5647;stroke:#000000;stroke-width:3;stroke-miterlimit:10;}
	.st2{fill:#D67A16;stroke:#000000;stroke-width:3;stroke-miterlimit:10;}
	.st3{fill:#DBCB86;stroke:#000000;stroke-width:3;stroke-miterlimit:10;}
</style>
<path class="st0" d="M76,138.2c0,42.7,70,57.8,70,57.8C105.2,162.3,76,13,76,13S46.8,162.3,6,196C6,196,76,180.9,76,138.2z"/>
<path class="st1" d="M93,191c0,4.2-7.2,7.5-16,7.5s-16-3.4-16-7.5L76,63L93,191z"/>
<path class="st2" d="M93,166c0,4.2-7.2,7.5-16,7.5s-16-3.4-16-7.5L76,38L93,166z"/>
<path class="st3" d="M93,141c0,4.2-7.2,7.5-16,7.5s-16-3.4-16-7.5L76,13L93,141z"/>
</svg>
